<svg xmlns="http://www.w3.org/2000/svg" width="96" height="96" viewBox="0 0 96 96" fill="none"><title>08-金橙微光</title><defs><linearGradient id="amber" x1="0" y1="0" x2=".8" y2="1"><stop offset="0.0" stop-color="#FFD278"/><stop offset="0.5" stop-color="#FFAF26"/><stop offset="1.0" stop-color="#FFC847"/></linearGradient><filter id="glow" x="-50%" y="-50%" width="200%" height="200%"><feGaussianBlur stdDeviation="3"/></filter></defs><path d="M35 46 L24 22 C21 15 23 10 28 9 C33 8 36 11 38 16 L46 34 L59 30 C69 27 77 32 80 41 L84 56 C87 66 81 74 72 79 L61 85 C56 88 51 87 46 85 L24 74 C17 71 15 66 18 61 C20 57 24 56 29 58 L35 61 Z" fill="#FFBB35" opacity=".6" filter="url(#glow)"/><path d="M35 46 L24 22 C21 15 23 10 28 9 C33 8 36 11 38 16 L46 34 L59 30 C69 27 77 32 80 41 L84 56 C87 66 81 74 72 79 L61 85 C56 88 51 87 46 85 L24 74 C17 71 15 66 18 61 C20 57 24 56 29 58 L35 61 Z" fill="url(#amber)" stroke="#282017" stroke-width="2.7"/><path d="M53 49 L60 60 M68 46 L71 56" stroke="#362318" stroke-width="3.5" stroke-linecap="round"/></svg>