<svg xmlns="http://www.w3.org/2000/svg" width="96" height="96" viewBox="0 0 96 96" fill="none"><title>07-冰彩全息</title><defs><linearGradient id="holo" x1="0" y1="0" x2=".8" y2="1"><stop offset="0.0" stop-color="#FFEEFF"/><stop offset="0.3333333333333333" stop-color="#DDACFA"/><stop offset="0.6666666666666666" stop-color="#85C7FA"/><stop offset="1.0" stop-color="#6FE7F1"/></linearGradient></defs><path d="M36 48 L29 20 C27 13 29 9 34 8 C39 7 42 11 43 16 L48 36 L55 36 C58 31 64 32 67 37 C72 33 78 37 79 43 C84 42 87 47 87 53 L88 62 C88 70 84 75 81 79 L81 84 L56 90 L53 84 C44 80 29 71 23 65 C18 60 19 54 23 51 C27 48 32 51 36 53 Z" fill="url(#holo)" stroke="#D7EFFF" stroke-width="1.5"/><path d="M34 15 L40 38" stroke="#FFFFFF" stroke-opacity=".7" stroke-width="3" stroke-linecap="round"/><path d="M58 85 L76 81" stroke="#ECFFFF" stroke-opacity=".65" stroke-width="2.5" stroke-linecap="round"/></svg>